{"glyphs":{"0":{"ha":833,"x_min":0,"x_max":0,"o":""},"1":{"ha":833,"x_min":0,"x_max":0,"o":""},"2":{"ha":833,"x_min":0,"x_max":0,"o":""},"3":{"ha":833,"x_min":0,"x_max":0,"o":""},"4":{"ha":833,"x_min":0,"x_max":0,"o":""},"5":{"ha":833,"x_min":0,"x_max":0,"o":""},"6":{"ha":833,"x_min":0,"x_max":0,"o":""},"7":{"ha":833,"x_min":0,"x_max":0,"o":""},"8":{"ha":833,"x_min":0,"x_max":0,"o":""},"9":{"ha":833,"x_min":0,"x_max":0,"o":""}," ":{"ha":833,"x_min":0,"x_max":0,"o":""},"A":{"ha":465,"x_min":0,"x_max":0,"o":"m 357 -281 b 350 -118 354 -226 351 -172 l 350 678 l 350 756 b 233 761 310 757 276 758 l 233 1114 l 110 1114 l 110 757 l 1 757 l 1 -281 l 110 -281 l 110 64 l 233 64 l 233 -281 z m 0 757 l 1 757 l 1 760 z "},"B":{"ha":833,"x_min":0,"x_max":0,"o":""},"C":{"ha":233,"x_min":0,"x_max":0,"o":"m 119 757 b 231 763 157 758 194 761 b 232 1117 232 881 232 999 l 0 1117 l 0 -278 l 232 -278 l 232 78 l 119 78 z m 233 763 l 231 763 l 231 761 z m 232 79 l 232 78 l 233 78 z "},"D":{"ha":236,"x_min":0,"x_max":0,"o":"m 124 1117 l 124 761 l 1 761 b 0 -278 1 414 1 69 l 233 -278 b 236 382 235 -58 236 163 b 233 1117 236 626 235 872 z m 0 761 l 1 761 l 1 763 z "},"E":{"ha":357,"x_min":0,"x_max":0,"o":"m 128 413 b 236 419 161 415 194 417 l 236 763 l 356 763 l 356 1117 l 0 1117 l 0 -278 l 356 -278 l 356 78 l 128 78 z m 357 763 l 356 763 l 356 761 z m 356 79 l 356 78 l 357 78 z "},"F":{"ha":833,"x_min":0,"x_max":0,"o":""},"G":{"ha":833,"x_min":0,"x_max":0,"o":""},"H":{"ha":235,"x_min":0,"x_max":0,"o":"m 124 747 l 124 1103 l 1 1103 l 1 407 l 114 399 b 117 325 114 374 117 350 b 110 -292 114 119 113 -86 l 233 -292 b 232 747 233 56 233 401 z m 232 749 l 232 747 l 235 747 z m 1 406 l 1 407 l 0 407 z "},"I":{"ha":343,"x_min":0,"x_max":0,"o":"m 1 1114 l 1 760 l 107 760 l 107 75 b 1 68 72 74 39 71 l 1 -281 l 343 -281 l 343 68 l 236 76 l 236 756 l 342 760 b 343 1114 342 878 343 996 z m 1 758 l 1 760 l 0 760 z m 343 760 l 342 760 l 342 758 z "},"J":{"ha":833,"x_min":0,"x_max":0,"o":""},"K":{"ha":833,"x_min":0,"x_max":0,"o":""},"L":{"ha":353,"x_min":0,"x_max":0,"o":"m 231 172 b 232 1085 231 478 231 781 l 232 1111 l 110 1111 l 110 1085 b 110 -242 111 642 111 200 b 108 -278 110 -253 110 -265 l 353 -278 l 353 81 l 231 81 z "},"M":{"ha":833,"x_min":0,"x_max":0,"o":""},"N":{"ha":574,"x_min":0,"x_max":0,"o":"m 0 1113 l 0 -282 l 122 -282 l 122 407 l 232 415 l 232 1113 z m 356 1113 l 351 501 l 351 414 l 233 414 b 232 -282 233 182 232 -50 l 465 -282 l 465 1113 z m 232 415 l 232 414 l 233 414 l 233 415 z "},"O":{"ha":833,"x_min":0,"x_max":0,"o":""},"P":{"ha":833,"x_min":0,"x_max":0,"o":""},"Q":{"ha":833,"x_min":0,"x_max":0,"o":""},"R":{"ha":356,"x_min":0,"x_max":0,"o":"m 246 419 l 246 1117 l 0 1117 b 3 518 1 918 3 718 b 0 -278 3 253 1 -12 l 122 -278 l 122 67 l 232 67 l 232 -278 l 356 -278 b 354 419 354 -44 354 186 z m 354 421 l 354 419 l 356 419 z "},"S":{"ha":347,"x_min":0,"x_max":0,"o":"m 342 1111 l 110 1111 l 110 417 b 0 410 75 414 42 413 l 0 -283 l 232 -283 l 232 406 b 342 415 272 408 306 413 b 347 833 343 554 346 693 b 342 1111 347 926 343 1018 z m 343 415 l 342 415 l 342 414 z "},"T":{"ha":356,"x_min":0,"x_max":0,"o":"m 0 756 l 104 756 l 104 -283 l 232 -283 l 232 750 l 356 750 l 356 1111 l 0 1111 z "},"U":{"ha":572,"x_min":0,"x_max":0,"o":"m 464 -282 l 108 -282 l 108 1113 l 232 1113 l 232 74 l 336 74 b 343 96 340 83 343 89 b 340 1113 343 435 342 774 l 464 1113 z "},"V":{"ha":856,"x_min":0,"x_max":0,"o":"m 139 757 l 246 757 l 246 74 l 371 74 l 371 -283 l 494 -283 l 494 58 l 604 58 l 604 756 l 726 756 l 726 1111 l 481 1111 l 481 422 l 368 422 l 368 1111 l 139 1111 z "},"W":{"ha":833,"x_min":0,"x_max":0,"o":""},"X":{"ha":833,"x_min":0,"x_max":0,"o":""},"Y":{"ha":833,"x_min":0,"x_max":0,"o":""},"Z":{"ha":833,"x_min":0,"x_max":0,"o":""},"a":{"ha":232,"x_min":0,"x_max":0,"o":"m 0 -279 l 0 1115 l 124 1115 b 119 1035 122 1089 119 1061 l 119 26 b 124 -279 119 -75 122 -176 z "},"b":{"ha":467,"x_min":0,"x_max":0,"o":"m 357 758 l 357 1115 l 233 1115 l 233 758 l 125 758 b 118 442 124 653 119 547 b 118 75 117 322 118 203 l 1 75 l 1 -279 l 357 -279 l 357 411 l 465 418 l 465 758 z m 124 758 l 125 758 l 125 761 z m 465 761 l 465 758 l 467 758 z m 0 75 l 1 75 l 1 76 z "},"c":{"ha":833,"x_min":0,"x_max":0,"o":""},"d":{"ha":342,"x_min":0,"x_max":0,"o":"m 110 1113 l 110 756 l 1 756 l 1 415 l 110 408 l 110 -282 l 233 -282 l 233 1113 z m 0 756 l 1 756 l 1 758 z "},"e":{"ha":342,"x_min":0,"x_max":0,"o":"m 110 1117 l 110 761 l 1 761 l 1 79 b 110 65 36 75 71 71 l 110 -278 l 233 -278 l 233 1117 z m 0 761 l 1 761 l 1 763 z m 1 78 l 1 79 l 0 79 z "},"f":{"ha":833,"x_min":0,"x_max":0,"o":""},"g":{"ha":833,"x_min":0,"x_max":0,"o":""},"h":{"ha":833,"x_min":0,"x_max":0,"o":""},"i":{"ha":833,"x_min":0,"x_max":0,"o":""},"j":{"ha":356,"x_min":0,"x_max":0,"o":"m 243 1036 b 247 1117 243 1063 246 1090 l 124 1117 l 124 419 l 1 419 l 1 -278 l 247 -278 b 243 -196 246 -250 243 -224 b 243 1036 242 214 242 625 z m 0 419 l 1 419 l 1 421 z "},"k":{"ha":110,"x_min":0,"x_max":0,"o":"m 110 1110 l 1 1110 l 1 71 b 110 69 38 71 74 71 z m 1 69 l 1 71 l 0 71 z "},"l":{"ha":347,"x_min":0,"x_max":0,"o":"m 239 -278 l 115 -278 l 115 67 b 0 69 78 68 44 68 b 1 157 -1 97 1 131 b 1 872 1 396 0 633 b 7 1117 1 954 4 1035 l 239 1117 z "},"m":{"ha":356,"x_min":0,"x_max":0,"o":"m 356 1117 l 356 764 l 235 764 l 235 -278 l 124 -278 l 124 67 l 0 67 l 0 1117 z "},"n":{"ha":833,"x_min":0,"x_max":0,"o":""},"o":{"ha":833,"x_min":0,"x_max":0,"o":""},"p":{"ha":236,"x_min":0,"x_max":0,"o":"m 3 1111 b 0 138 3 786 0 463 b 3 -283 0 -3 3 -143 l 113 -283 l 117 624 l 117 757 l 235 757 b 236 1111 235 875 235 993 z m 236 757 l 235 757 l 235 754 z "},"q":{"ha":833,"x_min":0,"x_max":0,"o":""},"r":{"ha":342,"x_min":0,"x_max":0,"o":"m 1 1115 l 1 419 b 118 411 38 417 72 414 l 118 338 b 118 -206 118 157 117 -25 b 124 -279 118 -231 122 -254 l 233 -279 l 233 1115 z m 1 418 l 1 419 l 0 419 z "},"s":{"ha":833,"x_min":0,"x_max":0,"o":""},"t":{"ha":833,"x_min":0,"x_max":0,"o":""},"u":{"ha":356,"x_min":0,"x_max":0,"o":"m 356 1110 l 356 753 l 247 753 l 247 -285 l 0 -285 l 0 758 l 124 758 l 124 1110 z "},"v":{"ha":833,"x_min":0,"x_max":0,"o":""},"w":{"ha":357,"x_min":0,"x_max":0,"o":"m 0 413 l 124 413 l 124 1108 l 233 1108 l 233 413 l 357 413 l 357 -286 l 0 -286 z "},"x":{"ha":342,"x_min":0,"x_max":0,"o":"m 110 1117 b 115 824 113 1019 115 922 b 115 78 117 578 115 332 l 1 78 l 1 -278 l 233 -278 l 233 1117 z m 0 78 l 1 78 l 1 79 z "},"y":{"ha":357,"x_min":0,"x_max":0,"o":"m 233 757 l 233 1113 l 1 1113 l 1 417 b 124 408 38 414 72 411 l 124 -282 l 233 -282 l 233 407 l 356 418 l 356 757 z m 356 758 l 356 757 l 357 757 z m 1 415 l 1 417 l 0 417 z "},"z":{"ha":357,"x_min":0,"x_max":0,"o":"m 246 760 l 246 1117 l 124 1117 l 124 760 l 1 760 l 1 419 l 124 413 l 124 -279 l 356 -279 l 356 760 z m 0 760 l 1 760 l 1 761 z m 356 761 l 356 760 l 357 760 z "},".":{"ha":833,"x_min":0,"x_max":0,"o":""},",":{"ha":833,"x_min":0,"x_max":0,"o":""},"-":{"ha":833,"x_min":0,"x_max":0,"o":""},"'":{"ha":233,"x_min":0,"x_max":0,"o":""},"@":{"ha":233,"x_min":0,"x_max":0,"o":"m 233 69 l 110 69 l 110 747 l 0 747 l 0 1107 l 233 1107 z m 108 69 l 108 -278 l 0 -278 l 0 69 z "}}}
